OS_from_script.mot
version=1
datacolumns 20
datarows 25
range 3.720000 3.960000
inDegrees=yes
endheader
time	pelvis_tilt	pelvis_list	pelvis_rotation	hip_flexion_r	hip_adduction_r	hip_rotation_r	knee_angle_r	ankle_angle_r	hip_flexion_l	hip_adduction_l	hip_rotation_l	knee_angle_l	ankle_angle_l	pelvis_tx	pelvis_ty	pelvis_tz	lumbar_bending	lumbar_rotation	lumbar_extension
3.720000	-0.820000	3.700000	-0.560000	17.500000	-4.580000	-3.640000	-65.500000	-10.220000	24.840000	-1.770000	0.590000	-21.100000	2.590000	1.510000	1.050000	0.310000	-8.070000	-5.130000	0.340000
3.730000	-0.830000	3.690000	-0.870000	19.460000	-4.100000	-3.640000	-66.500000	-9.190000	23.890000	-1.450000	1.020000	-20.690000	2.710000	1.520000	1.050000	0.300000	-8.060000	-5.030000	0.010000
3.740000	-0.790000	3.660000	-1.170000	21.380000	-3.640000	-3.540000	-67.190000	-8.270000	23.000000	-1.150000	1.490000	-20.310000	2.810000	1.530000	1.050000	0.300000	-8.030000	-4.830000	-0.280000
3.750000	-0.690000	3.620000	-1.420000	23.250000	-3.240000	-3.330000	-67.570000	-7.450000	22.100000	-0.900000	2.000000	-19.900000	2.890000	1.540000	1.050000	0.300000	-0.000000	-0.000000	0.000000
3.760000	-0.560000	3.590000	-1.600000	25.060000	-2.940000	-3.040000	-67.650000	-6.740000	21.160000	-0.770000	2.540000	-19.420000	2.930000	1.550000	1.060000	0.300000	-0.000000	-0.000000	0.000000
3.770000	-0.410000	3.580000	-1.690000	26.790000	-2.760000	-2.740000	-67.420000	-6.120000	20.130000	-0.750000	3.110000	-18.800000	2.940000	1.560000	1.060000	0.300000	-0.000000	-0.000000	0.000000
3.780000	-0.290000	3.580000	-1.680000	28.440000	-2.690000	-2.490000	-66.900000	-5.590000	19.030000	-0.850000	3.680000	-18.060000	2.920000	1.570000	1.060000	0.300000	-0.000000	-0.000000	0.000000
3.790000	-0.200000	3.590000	-1.600000	29.990000	-2.710000	-2.370000	-66.080000	-5.140000	17.840000	-1.050000	4.220000	-17.180000	2.890000	1.590000	1.060000	0.300000	-0.000000	-0.000000	0.000000
3.800000	-0.150000	3.620000	-1.470000	31.420000	-2.790000	-2.400000	-64.970000	-4.760000	16.600000	-1.300000	4.700000	-16.220000	2.890000	1.600000	1.060000	0.300000	-0.000000	-0.000000	0.000000
3.810000	-0.130000	3.680000	-1.330000	32.700000	-2.900000	-2.570000	-63.550000	-4.410000	15.320000	-1.570000	5.100000	-15.210000	2.940000	1.610000	1.070000	0.300000	-0.000000	-0.000000	0.000000
3.820000	-0.120000	3.780000	-1.190000	33.780000	-3.020000	-2.840000	-61.830000	-4.070000	14.000000	-1.820000	5.400000	-14.200000	3.050000	1.620000	1.070000	0.300000	-0.000000	-0.000000	0.000000
3.830000	-0.090000	3.920000	-1.090000	34.640000	-3.150000	-3.130000	-59.770000	-3.730000	12.650000	-2.030000	5.600000	-13.230000	3.240000	1.630000	1.070000	0.300000	-0.000000	-0.000000	0.000000
3.840000	-0.000000	4.120000	-1.010000	35.240000	-3.300000	-3.370000	-57.370000	-3.390000	11.280000	-2.210000	5.690000	-12.310000	3.500000	1.640000	1.070000	0.300000	-0.000000	-0.000000	0.000000
3.850000	0.160000	4.370000	-0.930000	35.570000	-3.500000	-3.530000	-54.610000	-3.080000	9.880000	-2.390000	5.680000	-11.450000	3.810000	1.650000	1.070000	0.300000	-0.000000	-0.000000	0.000000
3.860000	0.410000	4.660000	-0.830000	35.640000	-3.770000	-3.580000	-51.470000	-2.800000	8.440000	-2.600000	5.570000	-10.620000	4.170000	1.660000	1.070000	0.300000	-0.000000	-0.000000	0.000000
3.870000	0.750000	4.980000	-0.670000	35.460000	-4.120000	-3.550000	-47.950000	-2.560000	6.950000	-2.860000	5.390000	-9.790000	4.560000	1.670000	1.070000	0.300000	-0.000000	-0.000000	0.000000
3.880000	1.150000	5.350000	-0.430000	35.040000	-4.570000	-3.440000	-44.080000	-2.350000	5.400000	-3.220000	5.180000	-8.950000	4.950000	1.680000	1.060000	0.300000	-0.000000	-0.000000	0.000000
3.890000	1.590000	5.750000	-0.070000	34.440000	-5.120000	-3.290000	-39.900000	-2.120000	3.780000	-3.680000	4.940000	-8.070000	5.340000	1.700000	1.060000	0.300000	-0.000000	-0.000000	0.000000
3.900000	2.060000	6.160000	0.400000	33.690000	-5.750000	-3.100000	-35.480000	-1.880000	2.120000	-4.240000	4.710000	-7.170000	5.720000	1.710000	1.060000	0.300000	-0.000000	-0.000000	0.000000
3.910000	2.520000	6.590000	0.970000	32.880000	-6.450000	-2.900000	-30.910000	-1.610000	0.440000	-4.910000	4.460000	-6.270000	6.080000	1.720000	1.060000	0.300000	-0.000000	-0.000000	0.000000
3.920000	2.960000	7.010000	1.620000	32.050000	-7.180000	-2.680000	-26.280000	-1.360000	-1.210000	-5.640000	4.180000	-5.400000	6.440000	1.730000	1.050000	0.300000	-0.000000	-0.000000	0.000000
3.930000	3.350000	7.400000	2.310000	31.270000	-7.920000	-2.460000	-21.690000	-1.170000	-2.820000	-6.410000	3.860000	-4.580000	6.790000	1.740000	1.050000	0.300000	-0.000000	-0.000000	0.000000
3.940000	3.710000	7.750000	3.010000	30.570000	-8.630000	-2.220000	-17.210000	-1.090000	-4.350000	-7.180000	3.470000	-3.850000	7.140000	1.760000	1.050000	0.310000	-0.000000	-0.000000	0.000000
3.950000	4.030000	8.060000	3.690000	29.990000	-9.290000	-1.950000	-12.970000	-1.090000	-5.790000	-7.910000	3.020000	-3.240000	7.510000	1.770000	1.040000	0.310000	-0.000000	-0.000000	0.000000
3.960000	4.320000	8.310000	4.330000	29.550000	-9.880000	-1.660000	-9.090000	-1.180000	-7.130000	-8.570000	2.550000	-2.780000	7.920000	1.780000	1.040000	0.310000	-0.000000	-0.000000	0.000000
